<?xml version="1.0" standalone="no"?>
<!DOCTYPE svg PUBLIC "-//W3C//DTD SVG 20010904//EN"
 "http://www.w3.org/TR/2001/REC-SVG-20010904/DTD/svg10.dtd">
<svg version="1.0" xmlns="http://www.w3.org/2000/svg"
 width="500.000000pt" height="500.000000pt" viewBox="0 0 500.000000 500.000000"
 preserveAspectRatio="xMidYMid meet">
<metadata>

</metadata>
<g transform="translate(0.000000,500.000000) scale(0.100000,-0.100000)"
fill="#000000" stroke="none">
<path d="M509 4981 c-208 -56 -363 -185 -449 -375 -61 -135 -59 -81 -60 -1373
l0 -1182 342 2 343 2 1 910 c0 853 2 914 19 975 10 36 27 77 37 92 10 14 18
29 18 33 0 11 53 78 80 101 14 12 36 32 50 44 35 31 105 65 175 86 56 17 141
18 1307 18 685 1 1250 4 1253 8 6 6 10 482 6 651 l-1 27 -1527 -1 c-1421 -1
-1533 -2 -1594 -18z"/>
<path d="M4314 3079 c0 -1058 -3 -1942 -7 -1965 -30 -193 -192 -367 -387 -415
-81 -19 -2737 -21 -2825 -2 -157 35 -295 145 -359 285 -40 87 -49 138 -50 278
l-1 105 -343 3 -343 2 4 -407 c2 -225 7 -424 11 -443 4 -19 18 -61 31 -93 86
-210 247 -350 470 -408 67 -18 165 -19 1980 -18 1554 0 1921 2 1970 13 219 49
386 182 475 380 63 139 60 4 57 2121 -1 1062 -6 1943 -10 1958 -4 15 -15 49
-23 75 -85 249 -312 427 -571 448 l-78 6 -1 -1923z"/>
<path d="M2155 3433 l-340 -196 0 -394 c0 -318 2 -392 13 -388 12 4 357 202
577 331 l90 52 3 -734 2 -734 343 0 342 0 0 1130 0 1130 -345 0 -345 0 -340
-197z"/>
</g>
</svg>
